<svg width="400" height="711" viewBox="0 0 400 711" fill="none" xmlns="http://www.w3.org/2000/svg">
  <!-- Background -->
  <rect width="400" height="711" fill="#1a1a1a"/>
  
  <!-- Video play icon -->
  <circle cx="200" cy="355.5" r="60" fill="#333333" stroke="#666666" stroke-width="2"/>
  <polygon points="180,325.5 240,355.5 180,385.5" fill="#ffffff"/>
  
  <!-- Title text -->
  <text x="200" y="480" font-family="Arial, sans-serif" font-size="24" font-weight="bold" fill="#ffffff" text-anchor="middle">No Thumbnail</text>
  <text x="200" y="510" font-family="Arial, sans-serif" font-size="16" fill="#cccccc" text-anchor="middle">Available</text>
  
  <!-- Decorative elements -->
  <rect x="50" y="100" width="300" height="2" fill="#333333"/>
  <rect x="50" y="609" width="300" height="2" fill="#333333"/>
  
  <!-- Film strip effect -->
  <rect x="20" y="0" width="8" height="711" fill="#333333"/>
  <rect x="372" y="0" width="8" height="711" fill="#333333"/>
  
  <!-- Perforations -->
  <rect x="22" y="20" width="4" height="20" fill="#1a1a1a"/>
  <rect x="22" y="60" width="4" height="20" fill="#1a1a1a"/>
  <rect x="22" y="100" width="4" height="20" fill="#1a1a1a"/>
  <rect x="22" y="140" width="4" height="20" fill="#1a1a1a"/>
  <rect x="22" y="180" width="4" height="20" fill="#1a1a1a"/>
  
  <rect x="374" y="20" width="4" height="20" fill="#1a1a1a"/>
  <rect x="374" y="60" width="4" height="20" fill="#1a1a1a"/>
  <rect x="374" y="100" width="4" height="20" fill="#1a1a1a"/>
  <rect x="374" y="140" width="4" height="20" fill="#1a1a1a"/>
  <rect x="374" y="180" width="4" height="20" fill="#1a1a1a"/>
</svg>
